<svg width="36" height="36" viewBox="0 0 36 36" fill="none" xmlns="http://www.w3.org/2000/svg">
<rect width="36" height="36" rx="10" fill="url(#paint0_linear_6730_531)"/>
<path d="M18.8332 21.3333H17.1665C16.7082 21.3333 16.3332 20.9583 16.3332 20.5H10.5082V23.8333C10.5082 24.75 11.2582 25.5 12.1748 25.5H23.8332C24.7498 25.5 25.4998 24.75 25.4998 23.8333V20.5H19.6665C19.6665 20.9583 19.2915 21.3333 18.8332 21.3333ZM24.6665 13.8333H21.3332C21.3332 11.9917 19.8415 10.5 17.9998 10.5C16.1582 10.5 14.6665 11.9917 14.6665 13.8333H11.3332C10.4165 13.8333 9.6665 14.5833 9.6665 15.5V18C9.6665 18.925 10.4082 19.6667 11.3332 19.6667H16.3332V18.8333C16.3332 18.375 16.7082 18 17.1665 18H18.8332C19.2915 18 19.6665 18.375 19.6665 18.8333V19.6667H24.6665C25.5832 19.6667 26.3332 18.9167 26.3332 18V15.5C26.3332 14.5833 25.5832 13.8333 24.6665 13.8333ZM16.3332 13.8333C16.3332 12.9167 17.0832 12.1667 17.9998 12.1667C18.9165 12.1667 19.6665 12.9167 19.6665 13.8333H16.3248H16.3332Z" fill="white"/>
<defs>
<linearGradient id="paint0_linear_6730_531" x1="-0.141732" y1="18" x2="35.8583" y2="18" gradientUnits="userSpaceOnUse">
<stop stop-color="#1C64F2"/>
<stop offset="1" stop-color="#D41CF2"/>
</linearGradient>
</defs>
</svg>
