<svg width="36" height="36" viewBox="0 0 36 36" fill="none" xmlns="http://www.w3.org/2000/svg">
<rect width="36" height="36" rx="10" fill="url(#paint0_linear_6730_522)"/>
<g clip-path="url(#clip0_6730_522)">
<path fill-rule="evenodd" clip-rule="evenodd" d="M24.4809 11.6916C24.6868 11.605 24.9122 11.5751 25.1336 11.6051C25.355 11.6351 25.5643 11.7239 25.7398 11.8622C25.9152 12.0006 26.0504 12.1834 26.1312 12.3917C26.212 12.6 26.2355 12.8262 26.1992 13.0466L24.3092 24.5108C24.1259 25.6166 22.9125 26.2508 21.8984 25.7C21.05 25.2391 19.79 24.5291 18.6567 23.7883C18.09 23.4175 16.3542 22.23 16.5675 21.385C16.7509 20.6625 19.6675 17.9475 21.3342 16.3333C21.9884 15.6991 21.69 15.3333 20.9175 15.9166C18.9984 17.365 15.9192 19.5675 14.9009 20.1875C14.0025 20.7341 13.5342 20.8275 12.9742 20.7341C11.9525 20.5641 11.005 20.3008 10.2317 19.98C9.1867 19.5466 9.23754 18.11 10.2309 17.6916L24.4809 11.6916Z" fill="white"/>
</g>
<defs>
<linearGradient id="paint0_linear_6730_522" x1="-0.141732" y1="18" x2="35.8583" y2="18" gradientUnits="userSpaceOnUse">
<stop stop-color="#1C64F2"/>
<stop offset="1" stop-color="#D41CF2"/>
</linearGradient>
<clipPath id="clip0_6730_522">
<rect width="20" height="20" fill="white" transform="translate(8 8)"/>
</clipPath>
</defs>
</svg>
